<?xml version="1.0" standalone="no"?>
<!DOCTYPE svg PUBLIC "-//W3C//DTD SVG 20010904//EN"
 "http://www.w3.org/TR/2001/REC-SVG-20010904/DTD/svg10.dtd">
<svg version="1.0" xmlns="http://www.w3.org/2000/svg"
 width="225.000000pt" height="225.000000pt" viewBox="0 0 225.000000 225.000000"
 preserveAspectRatio="xMidYMid meet">

<g transform="translate(0.000000,225.000000) scale(0.100000,-0.100000)"
fill="#000000" stroke="none">
<path d="M928 2067 c-42 -16 -130 -78 -155 -111 -10 -12 -31 -26 -46 -30 -84
-21 -260 -276 -300 -435 -8 -31 -23 -62 -35 -72 -27 -21 -28 -29 -2 -29 16 0
20 -7 20 -32 1 -18 8 -51 16 -73 8 -22 22 -67 30 -100 14 -57 14 -62 -6 -98
-33 -58 -36 -132 -8 -187 24 -47 75 -88 120 -97 20 -4 30 -14 38 -38 13 -39
81 -105 137 -133 46 -23 142 -52 175 -52 21 0 21 -2 -12 -28 -96 -75 -149
-159 -238 -381 -34 -84 -62 -157 -62 -162 0 -5 101 -9 231 -9 l230 0 -5 162
c-4 157 -6 166 -36 230 -29 62 -30 70 -19 107 9 32 15 38 28 32 29 -15 90 -20
123 -10 19 5 36 5 41 0 19 -19 11 -86 -16 -143 -26 -54 -27 -63 -27 -217 l0
-161 225 0 c124 0 225 4 225 8 0 5 -13 44 -29 88 -86 234 -147 342 -244 430
-51 45 -57 54 -38 54 32 0 129 29 174 52 56 28 111 82 132 127 15 33 24 42 53
47 76 15 141 119 127 204 -4 23 0 59 10 95 14 45 16 87 13 193 -3 117 -2 131
9 104 7 -18 18 -32 24 -32 5 0 8 4 5 8 -3 5 -12 42 -21 84 -31 151 -106 297
-197 385 -29 28 -61 63 -72 78 -37 54 -112 79 -171 56 -13 -5 -30 0 -53 16
-19 13 -53 28 -76 33 -23 6 -63 18 -91 27 -69 22 -181 27 -227 10z m482 -797
c11 -15 20 -30 20 -32 0 -1 -25 -4 -55 -5 -58 -1 -125 -19 -125 -33 0 -5 17
-12 38 -15 51 -9 61 -13 34 -14 -28 -1 -79 -26 -110 -55 -28 -25 -62 -87 -62
-114 0 -15 -7 -18 -47 -16 -45 2 -48 4 -56 35 -5 19 -22 51 -39 72 -27 35 -29
41 -17 63 7 14 17 23 23 21 15 -6 84 21 121 47 24 16 27 17 16 3 -38 -48 46
-17 109 39 24 22 54 56 67 78 l25 39 19 -42 c10 -24 28 -55 39 -71z m-699 -12
c10 -25 9 -30 -12 -47 -17 -14 -26 -16 -32 -8 -7 12 -1 99 10 147 5 21 7 18
14 -20 5 -25 14 -57 20 -72z m195 24 l2 -58 -29 4 c-16 2 -29 6 -29 8 0 5 51
104 54 104 0 0 2 -26 2 -58z m195 -9 c-15 -26 -33 -46 -56 -63 -20 -15 -20
-15 0 10 51 65 77 89 56 53z m-176 -103 c4 -6 -6 -7 -27 -3 -44 8 -48 13 -10
13 17 0 34 -4 37 -10z m-195 -24 c0 -11 -19 -15 -25 -6 -3 5 1 10 9 10 9 0 16
-2 16 -4z m183 -13 c10 -2 20 -18 24 -35 5 -28 7 -29 18 -14 12 15 15 15 34
-10 99 -126 -5 -319 -162 -300 -93 11 -167 86 -167 171 l0 36 28 -26 c56 -54
84 -51 46 4 -14 19 -14 25 -3 32 10 6 16 0 22 -24 14 -52 23 -57 108 -57 l79
0 1 33 c1 17 0 42 -1 55 -1 20 2 22 24 16 16 -4 26 -2 26 5 0 6 -6 11 -14 11
-8 0 -16 5 -18 12 -3 9 -34 12 -99 12 -76 0 -103 -4 -143 -22 -27 -12 -51 -22
-53 -22 -2 0 6 18 18 40 45 80 133 111 232 83z m544 -16 c31 -16 63 -55 76
-90 4 -11 3 -16 -3 -12 -25 15 -154 45 -192 44 -52 0 -110 -19 -116 -38 -3 -9
2 -11 17 -6 19 6 21 2 21 -30 0 -66 11 -75 95 -75 81 0 95 10 95 64 0 27 6 31
28 18 10 -7 8 -15 -9 -36 -35 -45 -9 -51 39 -10 48 41 54 31 26 -49 -43 -125
-198 -165 -298 -76 -115 101 -64 291 85 317 50 9 89 3 136 -21z m121 -14 c53
-36 54 -37 48 -77 -4 -23 -13 -63 -21 -91 -8 -27 -22 -76 -31 -107 -18 -67
-40 -97 -99 -138 -40 -28 -170 -70 -257 -85 -29 -4 -38 -11 -38 -25 0 -11 -3
-20 -7 -21 -5 0 -24 -2 -43 -5 -44 -6 -102 4 -95 16 9 14 -35 34 -105 46 -182
32 -288 109 -314 229 -14 66 -15 75 -5 70 5 -4 24 -30 43 -59 42 -66 80 -94
148 -108 104 -21 206 39 244 144 11 28 27 56 36 61 25 16 68 -7 68 -35 0 -33
40 -97 80 -130 21 -16 58 -33 90 -39 79 -16 130 0 190 60 89 89 90 208 2 299
-42 43 -43 44 -15 38 15 -4 52 -23 81 -43z m-888 12 c0 -15 -21 -12 -30 5 -11
20 -10 21 9 10 12 -6 21 -13 21 -15z m-48 -70 c-7 -14 -13 -40 -13 -58 -1 -23
-5 -13 -15 33 -7 36 -13 74 -14 85 0 18 3 17 27 -7 24 -24 25 -30 15 -53z
m-128 -17 c24 -42 56 -144 56 -175 0 -17 -29 -6 -63 25 -44 41 -54 102 -30
185 6 22 5 23 37 -35z m1217 -91 c-7 -19 -21 -43 -33 -53 -18 -16 -17 -11 8
37 32 63 42 69 25 16z m-75 -32 c-4 -24 -13 -49 -21 -55 -13 -10 -13 -8 -6 16
5 16 13 47 17 69 9 53 18 26 10 -30z"/>
<path d="M1075 793 c-11 -2 -30 -6 -42 -9 -13 -2 -23 -11 -23 -19 0 -20 31
-31 107 -38 54 -4 62 -3 66 13 3 10 -2 28 -10 39 -14 21 -47 25 -98 14z"/>
</g>
</svg>
